<svg width="390" height="152" viewBox="0 0 390 152" fill="none" xmlns="http://www.w3.org/2000/svg">
<path d="M132.4 111.6V62.4H152.5V107.25C152.5 113.25 153.6 117.8 155.8 120.9C158 123.9 161.25 125.4 165.55 125.4C168.15 125.4 170.7 124.9 173.2 123.9C175.8 122.8 178.15 121.2 180.25 119.1C182.45 117 184.3 114.35 185.8 111.15V62.4H205.9V118.5C205.9 120.6 206.25 122.1 206.95 123C207.75 123.9 209 124.45 210.7 124.65V141C208.7 141.3 207 141.5 205.6 141.6C204.3 141.8 203.1 141.9 202 141.9C198.4 141.9 195.45 141.1 193.15 139.5C190.95 137.8 189.65 135.5 189.25 132.6L188.8 126.3C185.3 131.6 180.8 135.65 175.3 138.45C169.8 141.15 163.75 142.5 157.15 142.5C149.05 142.5 142.9 139.9 138.7 134.7C134.5 129.4 132.4 121.7 132.4 111.6Z" fill="#FDFDFD"/>
<path d="M97.95 141V71.1L70.65 123.15H59.1L31.8 71.1V141H11.1V34.5H33.3L64.8 95.1L96.6 34.5H118.65V141H97.95Z" fill="#FDFDFD"/>
<path d="M270.25 136.95C268.55 137.65 266.5 138.45 264.1 139.35C261.7 140.25 259.1 140.95 256.3 141.45C253.6 142.05 250.85 142.35 248.05 142.35C244.35 142.35 240.95 141.7 237.85 140.4C234.75 139.1 232.25 137.05 230.35 134.25C228.55 131.35 227.65 127.6 227.65 123V77.85H217.3V62.4H227.65V36.9H247.75V62.4H264.25V77.85H247.75V116.25C247.85 118.95 248.6 120.9 250 122.1C251.4 123.3 253.15 123.9 255.25 123.9C257.35 123.9 259.4 123.55 261.4 122.85C263.4 122.15 265 121.55 266.2 121.05L270.25 136.95Z" fill="#F8F9FA"/>
<path d="M304.672 91.2967C301.4 83.4807 286.152 83.0703 279.335 84.0988C278.483 84.613 279.13 86.3888 277.903 87.6229C276.369 89.1655 280.131 130.377 315.409 145.289C343.632 157.219 366.368 134.874 375.23 122.704C375.741 121.847 378.093 119.887 375.23 114.95C371.651 108.78 363.982 115.465 349.154 116.493C334.327 117.522 330.237 101.067 322.056 99.0099C313.876 96.9531 308.763 101.067 304.672 91.2967Z" fill="#ECECEC" stroke="black"/>
<path d="M355.898 48.806C349.833 62.5512 331.356 100.964 295.624 108.971C307.404 118.546 332.731 133.588 335.888 130.203C344.999 120.435 363.311 32.0059 355.898 48.806Z" fill="#1C8BF5" stroke="#00509D"/>
<path d="M355.402 48.9436C349.412 62.7524 333.2 97.2217 300.624 109.12C312.258 118.739 323.004 128.393 326.122 124.993C335.12 115.18 362.723 32.0659 355.402 48.9436Z" fill="#00509D" stroke="#00509D"/>
<path d="M296.587 93.7383C293.295 87.64 282.09 82.8908 278.834 87.5966C278.148 89.9682 279.359 96.3104 279.359 103.27C279.36 104.817 287.401 132.99 310.514 142.674C335.879 153.301 369.738 132.943 373.547 126.298C379.786 115.415 370.128 120.164 368.585 119.656C367.351 119.249 361.214 121.519 358.3 122.705C353.671 124.399 342.151 125.653 333.1 117.115C321.786 106.443 317.158 112.541 316.643 111.525C316.129 110.509 317.158 100.853 306.872 101.361C296.587 101.869 300.701 101.361 296.587 93.7383Z" fill="#FDFDFD" stroke="#DCDCDC"/>
<path d="M360.05 34.7281C360.326 34.3354 360.943 34.5182 360.959 34.9975L361.182 41.6648C361.194 42.006 360.867 42.2584 360.539 42.1614L356.475 40.9569C356.148 40.8599 356.012 40.4705 356.209 40.1909L360.05 34.7281Z" fill="#FDFDFD" stroke="#FFDC23"/>
<path d="M285.941 79.7535C287.858 75.7411 282.806 75.5405 280.409 75.7411C273.586 91.7906 281.146 110.047 283.543 107.439C285.941 104.831 281.146 99.6148 285.019 99.2135C288.891 98.8123 287.785 90.7875 285.941 88.7813C284.097 86.7751 283.543 84.769 285.941 79.7535Z" fill="white" stroke="#F0F0F0"/>
<path d="M304.005 125.824C296.977 121.998 293.489 127.418 292.624 130.607C315.587 153.127 343.342 146.351 348.733 143.362C353.046 140.97 351.595 137.848 350.331 136.586C348.201 136.519 343.821 135.231 343.342 130.607C342.743 124.828 335.754 127.817 328.566 122.436C321.377 117.055 321.577 125.824 315.986 125.824C310.395 125.824 312.791 130.607 304.005 125.824Z" fill="white" stroke="#F0F0F0"/>
<path d="M365.5 125.084C362.102 126.464 364.084 129.396 365.5 130.689C369.383 130.689 374.534 124.222 376.624 120.988C376.556 120.413 376.057 118.703 374.601 116.461C373.145 114.218 370.758 117.395 369.747 119.263C369.747 120.629 368.898 123.704 365.5 125.084Z" fill="white" stroke="#F0F0F0"/>
<path fill-rule="evenodd" clip-rule="evenodd" d="M348.349 35.1748C342.8 33.2991 336.885 32.242 330.747 32.1434C330.692 32.1425 330.637 32.136 330.582 32.1296L330.546 32.1254C330.498 32.12 330.449 32.118 330.399 32.1199C330.264 32.1248 330.13 32.1302 329.995 32.1361C329.557 32.1347 329.118 32.1381 328.677 32.1465C328.659 32.1468 328.645 32.1616 328.646 32.1796C328.646 32.1969 328.632 32.2114 328.615 32.2126C297.627 34.2992 273.54 60.808 274.161 92.5649C274.783 124.321 299.889 149.867 330.934 150.74C330.952 150.74 330.967 150.755 330.967 150.773C330.968 150.792 330.983 150.807 331.002 150.806C331.463 150.797 331.922 150.782 332.38 150.762L332.501 150.763C332.575 150.763 332.648 150.763 332.722 150.763C332.769 150.762 332.815 150.759 332.861 150.752C332.922 150.744 332.984 150.733 333.046 150.73C364.469 149.005 389.027 122.344 388.401 90.3299C388.085 74.1962 381.431 59.6713 370.879 49.168C370.008 51.8222 368.343 54.1224 366.16 55.7816C374.747 64.7756 380.137 76.9604 380.402 90.4865C380.949 118.407 359.449 141.471 332.219 142.761C305.051 142.565 282.707 120.36 282.16 92.4083C281.613 64.4747 303.042 41.4245 330.157 40.1371C335.136 40.1726 339.953 40.9416 344.505 42.3449C345.033 39.5683 346.405 37.0839 348.349 35.1748Z" fill="#D9D9D9"/>
</svg>
