<svg width="439" height="181" viewBox="0 0 439 181" fill="none" xmlns="http://www.w3.org/2000/svg">
<rect width="439" height="181" fill="#252422"/>
<path d="M152.3 114.481V65.2808H172.4V110.131C172.4 116.131 173.5 120.681 175.7 123.781C177.9 126.781 181.15 128.281 185.45 128.281C188.05 128.281 190.6 127.781 193.1 126.781C195.7 125.681 198.05 124.081 200.15 121.981C202.35 119.881 204.2 117.231 205.7 114.031V65.2808H225.8V121.381C225.8 123.481 226.15 124.981 226.85 125.881C227.65 126.781 228.9 127.331 230.6 127.531V143.881C228.6 144.181 226.9 144.381 225.5 144.481C224.2 144.681 223 144.781 221.9 144.781C218.3 144.781 215.35 143.981 213.05 142.381C210.85 140.681 209.55 138.381 209.15 135.481L208.7 129.181C205.2 134.481 200.7 138.531 195.2 141.331C189.7 144.031 183.65 145.381 177.05 145.381C168.95 145.381 162.8 142.781 158.6 137.581C154.4 132.281 152.3 124.581 152.3 114.481Z" fill="#FDFDFD"/>
<path d="M117.85 143.881V73.9808L90.55 126.031H79L51.7 73.9808V143.881H31V37.3808H53.2L84.7 97.9808L116.5 37.3808H138.55V143.881H117.85Z" fill="#FDFDFD"/>
<path d="M290.15 139.831C288.45 140.531 286.4 141.331 284 142.231C281.6 143.131 279 143.831 276.2 144.331C273.5 144.931 270.75 145.231 267.95 145.231C264.25 145.231 260.85 144.581 257.75 143.281C254.65 141.981 252.15 139.931 250.25 137.131C248.45 134.231 247.55 130.481 247.55 125.881V80.7308H237.2V65.2808H247.55V39.7808H267.65V65.2808H284.15V80.7308H267.65V119.131C267.75 121.831 268.5 123.781 269.9 124.981C271.3 126.181 273.05 126.781 275.15 126.781C277.25 126.781 279.3 126.431 281.3 125.731C283.3 125.031 284.9 124.431 286.1 123.931L290.15 139.831Z" fill="#F8F9FA"/>
<path d="M324.572 94.1775C321.3 86.3615 306.052 85.9511 299.235 86.9796C298.383 87.4938 299.03 89.2696 297.803 90.5037C296.269 92.0463 300.031 133.258 335.309 148.17C363.532 160.1 386.268 137.755 395.13 125.585C395.641 124.728 397.993 122.768 395.13 117.831C391.551 111.661 383.882 118.346 369.054 119.374C354.227 120.403 350.137 103.948 341.956 101.891C333.776 99.8339 328.663 103.948 324.572 94.1775Z" fill="#ECECEC" stroke="black"/>
<path d="M375.798 51.6868C369.733 65.432 351.256 103.845 315.524 111.852C327.304 121.427 352.631 136.469 355.788 133.084C364.899 123.316 383.211 34.8867 375.798 51.6868Z" fill="#1C8BF5" stroke="#00509D"/>
<path d="M375.302 51.8244C369.312 65.6332 353.1 100.103 320.524 112.001C332.158 121.62 342.904 131.274 346.022 127.874C355.02 118.061 382.623 34.9467 375.302 51.8244Z" fill="#00509D" stroke="#00509D"/>
<path d="M316.487 96.6191C313.195 90.5208 301.99 85.7716 298.734 90.4774C298.048 92.849 299.259 99.1912 299.259 106.151C299.26 107.698 307.301 135.871 330.414 145.555C355.779 156.182 389.638 135.824 393.447 129.179C399.686 118.296 390.028 123.045 388.485 122.537C387.251 122.13 381.114 124.4 378.2 125.586C373.571 127.28 362.051 128.534 353 119.996C341.686 109.324 337.058 115.422 336.543 114.406C336.029 113.39 337.058 103.734 326.772 104.242C316.487 104.75 320.601 104.242 316.487 96.6191Z" fill="#FDFDFD" stroke="#DCDCDC"/>
<path d="M379.95 37.6089C380.226 37.2162 380.843 37.399 380.859 37.8783L381.082 44.5456C381.094 44.8868 380.767 45.1392 380.439 45.0422L376.375 43.8377C376.048 43.7407 375.912 43.3513 376.109 43.0717L379.95 37.6089Z" fill="#FDFDFD" stroke="#FFDC23"/>
<path d="M305.841 82.6343C307.758 78.6219 302.706 78.4213 300.309 78.6219C293.486 94.6714 301.046 112.928 303.443 110.32C305.841 107.712 301.046 102.496 304.919 102.094C308.791 101.693 307.685 93.6683 305.841 91.6621C303.997 89.6559 303.443 87.6498 305.841 82.6343Z" fill="white" stroke="#F0F0F0"/>
<path d="M323.905 128.705C316.877 124.879 313.389 130.299 312.524 133.488C335.487 156.008 363.242 149.232 368.633 146.243C372.946 143.851 371.495 140.729 370.231 139.467C368.101 139.4 363.721 138.112 363.242 133.488C362.643 127.709 355.654 130.698 348.466 125.317C341.277 119.936 341.477 128.705 335.886 128.705C330.295 128.705 332.691 133.488 323.905 128.705Z" fill="white" stroke="#F0F0F0"/>
<path d="M385.4 127.965C382.002 129.345 383.984 132.277 385.4 133.57C389.283 133.57 394.434 127.103 396.524 123.869C396.456 123.294 395.957 121.584 394.501 119.342C393.045 117.099 390.658 120.276 389.647 122.144C389.647 123.51 388.798 126.585 385.4 127.965Z" fill="white" stroke="#F0F0F0"/>
<path fill-rule="evenodd" clip-rule="evenodd" d="M368.249 38.0556C362.7 36.1799 356.785 35.1228 350.647 35.0242C350.592 35.0233 350.537 35.0168 350.482 35.0104L350.446 35.0062C350.398 35.0008 350.349 34.9988 350.299 35.0007C350.164 35.0056 350.03 35.011 349.895 35.0169C349.457 35.0155 349.018 35.0189 348.577 35.0273C348.559 35.0276 348.545 35.0424 348.546 35.0604C348.546 35.0777 348.532 35.0922 348.515 35.0934C317.527 37.18 293.44 63.6888 294.061 95.4457C294.683 127.202 319.789 152.748 350.834 153.621C350.852 153.621 350.867 153.636 350.867 153.654C350.868 153.673 350.883 153.688 350.902 153.687C351.363 153.678 351.822 153.663 352.28 153.643L352.401 153.644C352.475 153.644 352.548 153.644 352.622 153.644C352.669 153.643 352.715 153.64 352.761 153.633C352.822 153.625 352.884 153.614 352.946 153.611C384.369 151.886 408.927 125.225 408.301 93.2107C407.985 77.077 401.331 62.5521 390.779 52.0488C389.908 54.703 388.243 57.0032 386.06 58.6624C394.647 67.6564 400.037 79.8412 400.302 93.3673C400.849 121.288 379.349 144.352 352.119 145.642C324.951 145.446 302.607 123.241 302.06 95.2891C301.513 67.3555 322.942 44.3053 350.057 43.0179C355.036 43.0534 359.853 43.8224 364.405 45.2257C364.933 42.4491 366.305 39.9647 368.249 38.0556Z" fill="#D9D9D9"/>
</svg>
