<svg width="862" height="918" viewBox="0 0 862 918" fill="none" xmlns="http://www.w3.org/2000/svg">
<rect width="862" height="918" fill="#252422"/>
<path d="M295.29 469.324C278.681 429.949 201.286 427.881 166.684 433.062C162.359 435.653 165.646 444.599 159.418 450.816C151.632 458.588 170.724 666.201 349.788 741.324C493.039 801.424 608.435 688.856 653.417 627.548C656.012 623.231 667.95 613.355 653.417 588.486C635.251 557.4 596.324 591.077 521.066 596.258C445.807 601.439 425.046 518.543 383.524 508.181C342.002 497.819 316.051 518.543 295.29 469.324Z" fill="#ECECEC" stroke="black"/>
<path d="M556 250.835C525.109 321.197 431 517.835 249 558.822C309 607.835 438 684.835 454.082 667.507C500.485 617.508 593.757 164.835 556 250.835Z" fill="#1C8BF5" stroke="#00509D" stroke-width="6"/>
<path d="M556.5 251C525.609 321.362 442 497 274 557.629C334 606.643 389.418 655.835 405.5 638.507C451.904 588.508 594.257 165 556.5 251Z" fill="#00509D" stroke="#00509D" stroke-width="5"/>
<path d="M254.644 480.029C238.035 448.943 181.493 424.734 165.061 448.722C161.601 460.811 167.712 493.14 167.713 528.615C167.713 536.502 208.294 680.114 324.922 729.474C452.922 783.648 623.778 679.873 643 646C674.481 590.524 625.746 614.734 617.961 612.143C611.733 610.071 580.765 621.642 566.059 627.686C542.703 636.321 484.572 642.711 438.898 599.191C381.805 544.791 358.449 575.877 355.854 570.696C353.259 565.515 358.449 516.296 306.546 518.886C254.644 521.477 275.405 518.886 254.644 480.029Z" fill="#FDFDFD" stroke="#DCDCDC"/>
<path d="M575.788 196.195C576.064 195.803 576.681 195.986 576.697 196.465L577.833 230.448C577.844 230.789 577.517 231.041 577.19 230.944L556.475 224.805C556.148 224.708 556.013 224.319 556.209 224.039L575.788 196.195Z" fill="#FDFDFD" stroke="#FFDC23"/>
<path d="M203.103 414.258C213.503 394.258 186.103 393.258 173.103 394.258C136.103 474.258 177.103 565.258 190.103 552.258C203.103 539.258 177.103 513.258 198.103 511.258C219.103 509.258 213.103 469.258 203.103 459.258C193.103 449.258 190.103 439.258 203.103 414.258Z" fill="white" stroke="#F0F0F0"/>
<path d="M296 645.765C260.8 626.565 243.333 653.765 239 669.765C354 782.765 493 748.765 520 733.765C541.6 721.765 534.333 706.098 528 699.765C517.333 699.431 495.4 692.965 493 669.765C490 640.765 455 655.765 419 628.765C383 601.765 384 645.765 356 645.765C328 645.765 340 669.765 296 645.765Z" fill="white" stroke="#F0F0F0"/>
<path d="M605.276 638.577C588.476 644.977 598.276 658.577 605.276 664.577C624.476 664.577 649.943 634.577 660.276 619.577C659.943 616.91 657.476 608.977 650.276 598.577C643.076 588.177 631.276 602.91 626.276 611.577C626.276 617.91 622.076 632.177 605.276 638.577Z" fill="white" stroke="#F0F0F0"/>
<path fill-rule="evenodd" clip-rule="evenodd" d="M429.975 186.087C432.004 186.036 434.038 186.007 436.078 186C436.226 185.999 436.366 186.031 436.493 186.089C436.539 186.109 436.584 186.131 436.629 186.152L436.629 186.152L436.63 186.153C436.828 186.247 437.03 186.343 437.247 186.354C472.405 188.095 505.876 196.31 536.527 209.844C532.472 213.546 529.154 218.042 526.819 223.086C496.906 210.353 464.239 202.963 429.985 202.092C285.88 205.921 170 325.966 170 473.77C170 621.669 286.029 741.774 430.262 745.455C574.916 741.627 691.19 621.556 691.19 473.777C691.19 390.769 654.504 316.504 596.71 266.671C600.15 262.442 602.774 257.522 604.342 252.152C667.187 304.954 707.19 384.661 707.19 473.777C707.19 627.83 587.647 753.765 437.221 761.202C437.009 761.212 436.812 761.304 436.618 761.394C436.583 761.41 436.549 761.426 436.514 761.442L436.485 761.455C436.361 761.51 436.223 761.54 436.078 761.54C434.137 761.533 432.201 761.506 430.27 761.46C427.959 761.518 425.642 761.547 423.318 761.549C423.219 761.549 423.139 761.469 423.139 761.37C423.139 761.274 423.063 761.195 422.967 761.19C273.069 753.711 154 627.77 154 473.77C154 319.768 273.073 193.824 422.975 186.349C423.066 186.345 423.139 186.269 423.139 186.177C423.139 186.082 423.216 186.005 423.311 186.006C425.538 186.007 427.76 186.034 429.975 186.087Z" fill="#D9D9D9"/>
</svg>
